ply
format ascii 1.0
comment VCGLIB generated
element vertex 316
property float x
property float y
property float z
property float nx
property float ny
property float nz
property uchar red
property uchar green
property uchar blue
element face 599
property list uchar int vertex_indices
end_header
-20 -93 -85 -0.400199 -1.26288 -0.957524 255 0 0 
-39 -87 -85 -1.08125 -2.41077 -1.9092 255 0 0 
-56 -77 -85 -1.54223 -2.14065 -1.87735 255 0 0 
-71 -64 -85 -1.96816 -1.78773 -1.90829 255 0 0 
-82 -48 -85 -2.27512 -1.26903 -1.92962 255 0 0 
-90 -30 -85 -2.48476 -0.812643 -1.94934 255 0 0 
-94 -10 -85 -2.56712 -0.251503 -1.97985 255 0 0 
-94 9 -85 -2.5739 0.268306 -1.96668 255 0 0 
-90 29 -85 -2.49566 0.790058 -1.94367 255 0 0 
-82 47 -85 -2.26684 1.29872 -1.91778 255 0 0 
-71 63 -85 -1.99265 1.77211 -1.89458 255 0 0 
-56 76 -85 -1.53889 2.13593 -1.8869 255 0 0 
-39 86 -85 -1.07581 2.40929 -1.91527 255 0 0 
-20 92 -85 -0.528594 2.5771 -1.9054 255 0 0 
-1 94 -85 -0.086165 1.93343 -1.38102 255 0 0 
22 107 -64 0.636181 3.56105 -1.87384 255 0 0 
44 100 -64 1.20925 2.66191 -1.35018 255 0 0 
64 88 -64 1.73369 2.35515 -1.31103 255 0 0 
81 73 -64 2.15934 1.98835 -1.30639 255 0 0 
95 54 -64 2.54715 1.45562 -1.32333 255 0 0 
104 33 -64 2.77737 0.907157 -1.31822 255 0 0 
109 11 -64 2.9051 0.327893 -1.34517 255 0 0 
109 -12 -64 2.90691 -0.337326 -1.33664 255 0 0 
104 -34 -64 2.78309 -0.903356 -1.30611 255 0 0 
95 -55 -64 2.54869 -1.45907 -1.31391 255 0 0 
81 -74 -64 2.16732 -1.98008 -1.30552 255 0 0 
64 -89 -64 1.73458 -2.34834 -1.32504 255 0 0 
44 -101 -64 1.20678 -2.65598 -1.36909 255 0 0 
22 -108 -64 0.56271 -2.85664 -1.37086 255 0 0 
0 -110 -64 0.013303 -2.91102 -1.34218 255 0 0 
-23 -108 -64 -0.944644 -4.01789 -2.25298 255 0 0 
-45 -101 -64 -2.20328 -4.86987 -3.10763 0 255 255 
-65 -89 -64 -3.18395 -4.34266 -3.07414 0 255 255 
-82 -74 -64 -3.96465 -3.64684 -3.04778 0 255 255 
-96 -55 -64 -4.64938 -2.63565 -3.09686 0 255 255 
-105 -34 -64 -5.08772 -1.65995 -3.12062 0 255 255 
-110 -12 -64 -5.27556 -0.582751 -3.15776 0 255 255 
-110 11 -64 -5.26662 0.603326 -3.15985 0 255 255 
-105 33 -64 -5.09425 1.63645 -3.11469 0 255 255 
-96 54 -64 -4.63529 2.65449 -3.09435 0 255 255 
-82 73 -64 -3.97975 3.61838 -3.05684 0 255 255 
-65 88 -64 -3.18835 4.34093 -3.08062 0 255 255 
-45 100 -64 -2.1996 4.86866 -3.12209 0 255 255 
-23 107 -64 -1.04223 5.23615 -3.13755 0 255 255 
-1 109 -64 -0.024705 5.37225 -3.10966 0 255 255 
25 118 -40 1.1574 5.7203 -1.90625 0 255 255 
49 110 -40 2.44469 5.3019 -1.95839 0 255 255 
70 97 -40 3.52157 4.69474 -2.00083 0 255 255 
89 80 -40 4.33012 3.98045 -1.91757 0 255 255 
104 60 -40 5.05674 2.95794 -1.94688 0 255 255 
114 37 -40 5.58845 1.83218 -1.96273 0 255 255 
120 12 -40 5.82036 0.675618 -1.86526 0 255 255 
120 -13 -40 5.81669 -0.646404 -1.9066 0 255 255 
114 -38 -40 5.56593 -1.87437 -1.99268 0 255 255 
104 -61 -40 5.05848 -2.95046 -1.93372 0 255 255 
89 -81 -40 4.35355 -3.95097 -1.93428 0 255 255 
70 -98 -40 3.48719 -4.7304 -1.97897 0 255 255 
49 -111 -40 2.47015 -5.3046 -1.90194 0 255 255 
25 -119 -40 1.18888 -5.71541 -1.92223 0 255 255 
0 -121 -40 -0.011594 -5.87624 -1.97067 0 255 255 
-26 -119 -40 -1.1574 -5.7203 -1.90625 0 255 255 
-50 -111 -40 -2.44469 -5.3019 -1.95839 0 255 255 
-71 -98 -40 -3.52157 -4.69474 -2.00083 0 255 255 
-90 -81 -40 -4.33012 -3.98045 -1.91757 0 255 255 
-105 -61 -40 -5.05674 -2.95794 -1.94688 0 255 255 
-115 -38 -40 -5.58845 -1.83218 -1.96273 0 255 255 
-121 -13 -40 -5.82036 -0.675618 -1.86526 0 255 255 
-121 12 -40 -5.81669 0.646404 -1.9066 0 255 255 
-115 37 -40 -5.56593 1.87437 -1.99268 0 255 255 
-105 60 -40 -5.05848 2.95046 -1.93372 0 255 255 
-90 80 -40 -4.35355 3.95097 -1.93428 0 255 255 
-71 97 -40 -3.48719 4.7304 -1.97897 0 255 255 
-50 110 -40 -2.47015 5.3046 -1.90194 0 255 255 
-26 118 -40 -1.18888 5.71541 -1.92223 0 255 255 
-1 120 -40 0.011594 5.87624 -1.97067 0 255 255 
26 123 -14 1.25821 6.0192 -0.619031 0 255 255 
51 115 -14 2.46932 5.63069 -0.616595 0 255 255 
74 102 -14 3.64956 4.88912 -0.704587 0 255 255 
93 84 -14 4.56222 4.1273 -0.678415 0 255 255 
109 63 -14 5.25476 3.14664 -0.667634 0 255 255 
120 39 -14 5.81465 1.84806 -0.71051 0 255 255 
125 13 -14 6.1203 0.62029 -0.626014 0 255 255 
125 -14 -14 6.13386 -0.588001 -0.592078 0 255 255 
120 -40 -14 5.80653 -1.89381 -0.692295 0 255 255 
109 -64 -14 5.25354 -3.13606 -0.686721 0 255 255 
93 -85 -14 4.58319 -4.11115 -0.662977 0 255 255 
74 -103 -14 3.60996 -4.91544 -0.711541 0 255 255 
51 -116 -14 2.48221 -5.61234 -0.653117 0 255 255 
26 -124 -14 1.3051 -6.01644 -0.603241 0 255 255 
0 -127 -14 -0.011893 -6.1235 -0.666216 0 255 255 
-27 -124 -14 -1.25821 -6.0192 -0.619031 0 255 255 
-52 -116 -14 -2.46932 -5.63069 -0.616595 0 255 255 
-75 -103 -14 -3.64956 -4.88912 -0.704587 0 255 255 
-94 -85 -14 -4.56222 -4.1273 -0.678415 0 255 255 
-110 -64 -14 -5.25476 -3.14664 -0.667634 0 255 255 
-121 -40 -14 -5.81465 -1.84806 -0.71051 0 255 255 
-126 -14 -14 -6.1203 -0.62029 -0.626014 0 255 255 
-126 13 -14 -6.13386 0.588001 -0.592078 0 255 255 
-121 39 -14 -5.80653 1.89381 -0.692295 0 255 255 
-110 63 -14 -5.25354 3.13606 -0.686721 0 255 255 
-94 84 -14 -4.58319 4.11115 -0.662977 0 255 255 
-75 102 -14 -3.60996 4.91544 -0.711541 0 255 255 
-52 115 -14 -2.48221 5.61234 -0.653117 0 255 255 
-27 123 -14 -1.3051 6.01644 -0.603241 0 255 255 
-1 126 -14 0.011893 6.1235 -0.666216 0 255 255 
26 123 13 1.29203 6.01714 0.602983 0 255 255 
51 115 13 2.48221 5.61234 0.653117 0 255 255 
74 102 13 3.60996 4.91544 0.711541 0 255 255 
93 84 13 4.58319 4.11115 0.662977 0 255 255 
109 63 13 5.25354 3.13606 0.686721 0 255 255 
120 39 13 5.80653 1.89381 0.692295 0 255 255 
125 13 13 6.13386 0.588001 0.592078 0 255 255 
125 -14 13 6.1203 -0.62029 0.626014 0 255 255 
120 -40 13 5.81465 -1.84806 0.71051 0 255 255 
109 -64 13 5.25476 -3.14664 0.667634 0 255 255 
93 -85 13 4.56222 -4.1273 0.678415 0 255 255 
74 -103 13 3.64956 -4.88912 0.704587 0 255 255 
51 -116 13 2.46932 -5.63069 0.616595 0 255 255 
26 -124 13 1.27103 -6.01853 0.619793 0 255 255 
0 -127 13 0.037341 -6.12329 0.666644 0 255 255 
-27 -124 13 -1.29203 -6.01714 0.602983 0 255 255 
-52 -116 13 -2.48221 -5.61234 0.653117 0 255 255 
-75 -103 13 -3.60996 -4.91544 0.711541 0 255 255 
-94 -85 13 -4.58319 -4.11115 0.662977 0 255 255 
-110 -64 13 -5.25354 -3.13606 0.686721 0 255 255 
-121 -40 13 -5.80653 -1.89381 0.692295 0 255 255 
-126 -14 13 -6.13386 -0.588001 0.592078 0 255 255 
-126 13 13 -6.1203 0.62029 0.626014 0 255 255 
-121 39 13 -5.81465 1.84806 0.71051 0 255 255 
-110 63 13 -5.25476 3.14664 0.667634 0 255 255 
-94 84 13 -4.56222 4.1273 0.678415 0 255 255 
-75 102 13 -3.64956 4.88912 0.704587 0 255 255 
-52 115 13 -2.46932 5.63069 0.616595 0 255 255 
-27 123 13 -1.27103 6.01853 0.619793 0 255 255 
-1 126 13 -0.037341 6.12329 0.666644 0 255 255 
25 118 39 1.17974 5.71588 1.92087 0 255 255 
49 110 39 2.47015 5.3046 1.90194 0 255 255 
70 97 39 3.48719 4.7304 1.97897 0 255 255 
89 80 39 4.35355 3.95097 1.93428 0 255 255 
104 60 39 5.05848 2.95046 1.93372 0 255 255 
114 37 39 5.56593 1.87437 1.99268 0 255 255 
120 12 39 5.81669 0.646404 1.9066 0 255 255 
120 -13 39 5.82036 -0.675618 1.86526 0 255 255 
114 -38 39 5.58845 -1.83218 1.96273 0 255 255 
104 -61 39 5.05674 -2.95794 1.94688 0 255 255 
89 -81 39 4.33012 -3.98045 1.91757 0 255 255 
70 -98 39 3.52157 -4.69474 2.00083 0 255 255 
49 -111 39 2.44469 -5.3019 1.95839 0 255 255 
25 -119 39 1.16668 -5.72016 1.90673 0 255 255 
0 -121 39 0.03011 -5.87648 1.96973 0 255 255 
-26 -119 39 -1.17974 -5.71588 1.92087 0 255 255 
-50 -111 39 -2.47015 -5.3046 1.90194 0 255 255 
-71 -98 39 -3.48719 -4.7304 1.97897 0 255 255 
-90 -81 39 -4.35355 -3.95097 1.93428 0 255 255 
-105 -61 39 -5.05848 -2.95046 1.93372 0 255 255 
-115 -38 39 -5.56593 -1.87437 1.99268 0 255 255 
-121 -13 39 -5.81669 -0.646404 1.9066 0 255 255 
-121 12 39 -5.82036 0.675618 1.86526 0 255 255 
-115 37 39 -5.58845 1.83218 1.96273 0 255 255 
-105 60 39 -5.05674 2.95794 1.94688 0 255 255 
-90 80 39 -4.33012 3.98045 1.91757 0 255 255 
-71 97 39 -3.52157 4.69474 2.00083 0 255 255 
-50 110 39 -2.44469 5.3019 1.95839 0 255 255 
-26 118 39 -1.16668 5.72016 1.90673 0 255 255 
-1 120 39 -0.03011 5.87648 1.96973 0 255 255 
22 107 63 1.03202 5.2368 3.13674 0 255 255 
44 100 63 2.1996 4.86866 3.12209 0 255 255 
64 88 63 3.18835 4.34093 3.08062 0 255 255 
81 73 63 3.97975 3.61838 3.05684 0 255 255 
95 54 63 4.63529 2.65449 3.09435 0 255 255 
104 33 63 5.09425 1.63645 3.11469 0 255 255 
109 11 63 5.26662 0.603325 3.15985 0 255 255 
109 -12 63 5.27556 -0.582751 3.15776 0 255 255 
104 -34 63 5.08772 -1.65995 3.12062 0 255 255 
95 -55 63 4.64938 -2.63565 3.09686 0 255 255 
81 -74 63 3.96465 -3.64684 3.04778 0 255 255 
64 -89 63 3.18395 -4.34266 3.07414 0 255 255 
44 -101 63 2.20328 -4.86987 3.10763 0 255 255 
22 -108 63 1.06832 -5.23553 3.13144 0 255 255 
0 -110 63 -0.003747 -5.37243 3.10978 0 255 255 
-23 -108 63 -1.03202 -5.2368 3.13674 0 255 255 
-45 -101 63 -2.1996 -4.86866 3.12209 0 255 255 
-65 -89 63 -3.18835 -4.34093 3.08062 0 255 255 
-82 -74 63 -3.97975 -3.61838 3.05684 0 255 255 
-96 -55 63 -4.63529 -2.65449 3.09435 0 255 255 
-105 -34 63 -5.09425 -1.63645 3.11469 0 255 255 
-110 -12 63 -5.26662 -0.603325 3.15985 0 255 255 
-110 11 63 -5.27556 0.582751 3.15776 0 255 255 
-105 33 63 -5.08772 1.65995 3.12062 0 255 255 
-96 54 63 -4.64938 2.63565 3.09686 0 255 255 
-82 73 63 -3.96465 3.64684 3.04778 0 255 255 
-65 88 63 -3.18395 4.34266 3.07414 0 255 255 
-45 100 63 -2.20328 4.86987 3.10763 0 255 255 
-23 107 63 -1.06832 5.23553 3.13144 0 255 255 
-1 109 63 0.003747 5.37243 3.10978 0 255 255 
19 92 84 0.935349 4.56066 4.09909 0 255 255 
38 86 84 1.89263 4.22955 4.10982 0 255 255 
55 76 84 2.71363 3.753 4.12404 0 255 255 
70 63 84 3.4376 3.08283 4.09553 0 255 255 
81 47 84 4.02948 2.28256 4.13661 0 255 255 
89 29 84 4.40235 1.41243 4.13522 0 255 255 
93 9 84 4.61505 0.470964 4.14374 0 255 255 
93 -10 84 4.59163 -0.468596 4.16946 0 255 255 
89 -30 84 4.38699 -1.41295 4.14979 0 255 255 
81 -48 84 4.02215 -2.2633 4.15538 0 255 255 
70 -64 84 3.42445 -3.08128 4.1116 0 255 255 
55 -77 84 2.72313 -3.77121 4.10269 0 255 255 
38 -87 84 1.90152 -4.2413 4.09505 0 255 255 
19 -93 84 0.938466 -4.55072 4.11179 0 255 255 
0 -95 84 0.015153 -4.64597 4.10379 0 255 255 
-20 -93 84 -0.935349 -4.56066 4.09909 0 255 255 
-39 -87 84 -1.89263 -4.22955 4.10982 0 255 255 
-56 -77 84 -2.71363 -3.753 4.12404 0 255 255 
-71 -64 84 -3.4376 -3.08283 4.09553 0 255 255 
-82 -48 84 -4.02948 -2.28256 4.13661 0 255 255 
-90 -30 84 -4.40235 -1.41243 4.13522 0 255 255 
-94 -10 84 -4.61505 -0.470964 4.14374 0 255 255 
-94 9 84 -4.59163 0.468596 4.16946 0 255 255 
-90 29 84 -4.38699 1.41295 4.14979 0 255 255 
-82 47 84 -4.02215 2.2633 4.15538 0 255 255 
-71 63 84 -3.42445 3.08128 4.1116 0 255 255 
-56 76 84 -2.72313 3.77121 4.10269 0 255 255 
-39 86 84 -1.90152 4.2413 4.09505 0 255 255 
-20 92 84 -0.938466 4.55072 4.11179 0 255 255 
-1 94 84 -0.015153 4.64597 4.10379 0 255 255 
15 73 102 0.723897 3.67351 4.94425 0 255 255 
30 68 102 1.58924 3.40986 4.94172 0 255 255 
43 60 102 2.24665 3.00259 4.96738 0 255 255 
55 49 102 2.75866 2.50065 4.99463 0 255 255 
64 37 102 3.2392 1.86214 4.96388 0 255 255 
70 23 102 3.56906 1.20485 4.96458 0 255 255 
74 7 102 3.74465 0.435322 4.92761 0 255 255 
74 -8 102 3.76807 -0.455388 4.90436 0 255 255 
70 -24 102 3.57936 -1.19748 4.95504 0 255 255 
64 -38 102 3.24327 -1.87239 4.95459 0 255 255 
55 -50 102 2.77984 -2.49487 4.9858 0 255 255 
43 -61 102 2.24437 -2.98832 4.98194 0 255 255 
30 -69 102 1.56571 -3.40184 4.95745 0 255 255 
15 -74 102 0.719796 -3.67637 4.94038 0 255 255 
0 -75 102 0.020014 -3.74598 4.98265 0 255 255 
-16 -74 102 -0.723897 -3.67351 4.94425 0 255 255 
-31 -69 102 -1.58924 -3.40986 4.94172 0 255 255 
-44 -61 102 -2.24665 -3.00259 4.96738 0 255 255 
-56 -50 102 -2.75866 -2.50065 4.99463 0 255 255 
-65 -38 102 -3.2392 -1.86214 4.96388 0 255 255 
-71 -24 102 -3.56906 -1.20485 4.96458 0 255 255 
-75 -8 102 -3.74465 -0.435322 4.92761 0 255 255 
-75 7 102 -3.76807 0.455388 4.90436 0 255 255 
-71 23 102 -3.57936 1.19748 4.95504 0 255 255 
-65 37 102 -3.24327 1.87239 4.95459 0 255 255 
-56 49 102 -2.77984 2.49487 4.9858 0 255 255 
-44 60 102 -2.24437 2.98832 4.98194 0 255 255 
-31 68 102 -1.56571 3.40184 4.95745 0 255 255 
-16 73 102 -0.719796 3.67637 4.94038 0 255 255 
-1 74 102 -0.020014 3.74598 4.98265 0 255 255 
10 50 116 0.44462 2.54742 5.65598 0 255 255 
21 47 116 1.10289 2.37106 5.61304 0 255 255 
30 41 116 1.58648 2.0782 5.64533 0 255 255 
38 34 116 1.97763 1.72757 5.61572 0 255 255 
44 25 116 2.24946 1.3273 5.65126 0 255 255 
49 15 116 2.50508 0.829626 5.61045 0 255 255 
51 4.99999 116 2.60784 0.276499 5.63066 0 255 255 
51 -6.00001 116 2.59845 -0.257591 5.63943 0 255 255 
49 -16 116 2.48976 -0.868268 5.61066 0 255 255 
44 -26 116 2.25937 -1.29237 5.65341 0 255 255 
38 -35 116 1.95931 -1.73747 5.62131 0 255 255 
30 -42 116 1.59493 -2.07068 5.64636 0 255 255 
21 -48 116 1.07263 -2.38082 5.61203 0 255 255 
10 -51 116 0.491224 -2.54587 5.65325 0 255 255 
0 -52 116 -0.002374 -2.60245 5.64506 0 255 255 
-11 -51 116 -0.44462 -2.54742 5.65598 0 255 255 
-22 -48 116 -1.10289 -2.37106 5.61304 0 255 255 
-31 -42 116 -1.58648 -2.0782 5.64533 0 255 255 
-39 -35 116 -1.97763 -1.72757 5.61572 0 255 255 
-45 -26 116 -2.24946 -1.3273 5.65126 0 255 255 
-50 -16 116 -2.50508 -0.829626 5.61045 0 255 255 
-52 -6.00001 116 -2.60784 -0.276499 5.63066 0 255 255 
-52 4.99999 116 -2.59845 0.257591 5.63943 0 255 255 
-50 15 116 -2.48976 0.868268 5.61066 0 255 255 
-45 25 116 -2.25937 1.29237 5.65341 0 255 255 
-39 34 116 -1.95931 1.73747 5.62131 0 255 255 
-31 41 116 -1.59493 2.07068 5.64636 0 255 255 
-22 47 116 -1.07263 2.38082 5.61203 0 255 255 
-11 50 116 -0.491224 2.54587 5.65325 0 255 255 
-1 51 116 0.002374 2.60245 5.64506 0 255 255 
5 25 124 0.229541 1.30425 6.11149 0 255 255 
10 24 124 0.488553 1.25788 6.09023 0 255 255 
15 21 124 0.840288 1.06428 6.09298 0 255 255 
19 17 124 1.00781 0.884781 6.10274 0 255 255 
22 13 124 1.1106 0.740835 6.106 0 255 255 
25 7.99999 124 1.28544 0.468763 6.08111 0 255 255 
26 1.99999 124 1.3392 0.112822 6.09927 0 255 255 
26 -3.00001 124 1.33409 -0.108949 6.10088 0 255 255 
25 -9.00001 124 1.28409 -0.488148 6.07798 0 255 255 
22 -14 124 1.1217 -0.745429 6.10037 0 255 255 
19 -18 124 1.01056 -0.866664 6.10408 0 255 255 
15 -22 124 0.819257 -1.06411 6.09516 0 255 255 
10 -25 124 0.487049 -1.26678 6.08448 0 255 255 
5 -26 124 0.264145 -1.27726 6.11593 0 255 255 
0 -27 124 0.009436 -1.35359 6.08477 0 255 255 
-6 -26 124 -0.226814 -1.28882 6.11327 0 255 255 
-11 -25 124 -0.483603 -1.24362 6.09177 0 255 255 
-16 -22 124 -0.829967 -1.05068 6.09478 0 255 255 
-20 -18 124 -0.994066 -0.8729 6.10474 0 255 255 
-23 -14 124 -1.0955 -0.730891 6.10801 0 255 255 
-26 -9.00001 124 -1.27159 -0.464486 6.08256 0 255 255 
-27 -3.00001 124 -1.32582 -0.112258 6.10071 0 255 255 
-27 1.99999 124 -1.32288 0.10735 6.10209 0 255 255 
-26 7.99999 124 -1.27821 0.484455 6.07866 0 255 255 
-23 13 124 -1.11903 0.742959 6.10077 0 255 255 
-20 17 124 -1.01011 0.86525 6.10422 0 255 255 
-16 21 124 -0.821542 1.0651 6.09493 0 255 255 
-11 24 124 -0.490774 1.27236 6.08381 0 255 255 
-6 25 124 -0.266235 1.28771 6.1147 0 255 255 
-1 26 124 -0.0108 1.36504 6.0836 0 255 255 
0 -0.000007 127 0.013089 0.013365 6.20275 0 255 255 
3 0 31 1 
3 31 0 30 
3 1 32 2 
3 32 1 31 
3 2 33 3 
3 33 2 32 
3 3 34 4 
3 34 3 33 
3 4 35 5 
3 35 4 34 
3 5 36 6 
3 36 5 35 
3 6 37 7 
3 37 6 36 
3 7 38 8 
3 38 7 37 
3 8 39 9 
3 39 8 38 
3 9 40 10 
3 40 9 39 
3 10 41 11 
3 41 10 40 
3 11 42 12 
3 42 11 41 
3 12 43 13 
3 43 12 42 
3 13 44 14 
3 44 13 43 
3 15 14 44 
3 15 46 16 
3 46 15 45 
3 16 47 17 
3 47 16 46 
3 17 48 18 
3 48 17 47 
3 18 49 19 
3 49 18 48 
3 19 50 20 
3 50 19 49 
3 20 51 21 
3 51 20 50 
3 21 52 22 
3 52 21 51 
3 22 53 23 
3 53 22 52 
3 23 54 24 
3 54 23 53 
3 24 55 25 
3 55 24 54 
3 25 56 26 
3 56 25 55 
3 26 57 27 
3 57 26 56 
3 27 58 28 
3 58 27 57 
3 28 59 29 
3 59 28 58 
3 29 60 30 
3 60 29 59 
3 30 61 31 
3 61 30 60 
3 31 62 32 
3 62 31 61 
3 32 63 33 
3 63 32 62 
3 33 64 34 
3 64 33 63 
3 34 65 35 
3 65 34 64 
3 35 66 36 
3 66 35 65 
3 36 67 37 
3 67 36 66 
3 37 68 38 
3 68 37 67 
3 38 69 39 
3 69 38 68 
3 39 70 40 
3 70 39 69 
3 40 71 41 
3 71 40 70 
3 41 72 42 
3 72 41 71 
3 42 73 43 
3 73 42 72 
3 43 74 44 
3 74 43 73 
3 44 45 15 
3 45 44 74 
3 45 76 46 
3 76 45 75 
3 46 77 47 
3 77 46 76 
3 47 78 48 
3 78 47 77 
3 48 79 49 
3 79 48 78 
3 49 80 50 
3 80 49 79 
3 50 81 51 
3 81 50 80 
3 51 82 52 
3 82 51 81 
3 52 83 53 
3 83 52 82 
3 53 84 54 
3 84 53 83 
3 54 85 55 
3 85 54 84 
3 55 86 56 
3 86 55 85 
3 56 87 57 
3 87 56 86 
3 57 88 58 
3 88 57 87 
3 58 89 59 
3 89 58 88 
3 59 90 60 
3 90 59 89 
3 60 91 61 
3 91 60 90 
3 61 92 62 
3 92 61 91 
3 62 93 63 
3 93 62 92 
3 63 94 64 
3 94 63 93 
3 64 95 65 
3 95 64 94 
3 65 96 66 
3 96 65 95 
3 66 97 67 
3 97 66 96 
3 67 98 68 
3 98 67 97 
3 68 99 69 
3 99 68 98 
3 69 100 70 
3 100 69 99 
3 70 101 71 
3 101 70 100 
3 71 102 72 
3 102 71 101 
3 72 103 73 
3 103 72 102 
3 73 104 74 
3 104 73 103 
3 74 75 45 
3 75 74 104 
3 75 106 76 
3 106 75 105 
3 76 107 77 
3 107 76 106 
3 77 108 78 
3 108 77 107 
3 78 109 79 
3 109 78 108 
3 79 110 80 
3 110 79 109 
3 80 111 81 
3 111 80 110 
3 81 112 82 
3 112 81 111 
3 82 113 83 
3 113 82 112 
3 83 114 84 
3 114 83 113 
3 84 115 85 
3 115 84 114 
3 85 116 86 
3 116 85 115 
3 86 117 87 
3 117 86 116 
3 87 118 88 
3 118 87 117 
3 88 119 89 
3 119 88 118 
3 89 120 90 
3 120 89 119 
3 90 121 91 
3 121 90 120 
3 91 122 92 
3 122 91 121 
3 92 123 93 
3 123 92 122 
3 93 124 94 
3 124 93 123 
3 94 125 95 
3 125 94 124 
3 95 126 96 
3 126 95 125 
3 96 127 97 
3 127 96 126 
3 97 128 98 
3 128 97 127 
3 98 129 99 
3 129 98 128 
3 99 130 100 
3 130 99 129 
3 100 131 101 
3 131 100 130 
3 101 132 102 
3 132 101 131 
3 102 133 103 
3 133 102 132 
3 103 134 104 
3 134 103 133 
3 104 105 75 
3 105 104 134 
3 105 136 106 
3 136 105 135 
3 106 137 107 
3 137 106 136 
3 107 138 108 
3 138 107 137 
3 108 139 109 
3 139 108 138 
3 109 140 110 
3 140 109 139 
3 110 141 111 
3 141 110 140 
3 111 142 112 
3 142 111 141 
3 112 143 113 
3 143 112 142 
3 113 144 114 
3 144 113 143 
3 114 145 115 
3 145 114 144 
3 115 146 116 
3 146 115 145 
3 116 147 117 
3 147 116 146 
3 117 148 118 
3 148 117 147 
3 118 149 119 
3 149 118 148 
3 119 150 120 
3 150 119 149 
3 120 151 121 
3 151 120 150 
3 121 152 122 
3 152 121 151 
3 122 153 123 
3 153 122 152 
3 123 154 124 
3 154 123 153 
3 124 155 125 
3 155 124 154 
3 125 156 126 
3 156 125 155 
3 126 157 127 
3 157 126 156 
3 127 158 128 
3 158 127 157 
3 128 159 129 
3 159 128 158 
3 129 160 130 
3 160 129 159 
3 130 161 131 
3 161 130 160 
3 131 162 132 
3 162 131 161 
3 132 163 133 
3 163 132 162 
3 133 164 134 
3 164 133 163 
3 134 135 105 
3 135 134 164 
3 135 166 136 
3 166 135 165 
3 136 167 137 
3 167 136 166 
3 137 168 138 
3 168 137 167 
3 138 169 139 
3 169 138 168 
3 139 170 140 
3 170 139 169 
3 140 171 141 
3 171 140 170 
3 141 172 142 
3 172 141 171 
3 142 173 143 
3 173 142 172 
3 143 174 144 
3 174 143 173 
3 144 175 145 
3 175 144 174 
3 145 176 146 
3 176 145 175 
3 146 177 147 
3 177 146 176 
3 147 178 148 
3 178 147 177 
3 148 179 149 
3 179 148 178 
3 149 180 150 
3 180 149 179 
3 150 181 151 
3 181 150 180 
3 151 182 152 
3 182 151 181 
3 152 183 153 
3 183 152 182 
3 153 184 154 
3 184 153 183 
3 154 185 155 
3 185 154 184 
3 155 186 156 
3 186 155 185 
3 156 187 157 
3 187 156 186 
3 157 188 158 
3 188 157 187 
3 158 189 159 
3 189 158 188 
3 159 190 160 
3 190 159 189 
3 160 191 161 
3 191 160 190 
3 161 192 162 
3 192 161 191 
3 162 193 163 
3 193 162 192 
3 163 194 164 
3 194 163 193 
3 164 165 135 
3 165 164 194 
3 165 196 166 
3 196 165 195 
3 166 197 167 
3 197 166 196 
3 167 198 168 
3 198 167 197 
3 168 199 169 
3 199 168 198 
3 169 200 170 
3 200 169 199 
3 170 201 171 
3 201 170 200 
3 171 202 172 
3 202 171 201 
3 172 203 173 
3 203 172 202 
3 173 204 174 
3 204 173 203 
3 174 205 175 
3 205 174 204 
3 175 206 176 
3 206 175 205 
3 176 207 177 
3 207 176 206 
3 177 208 178 
3 208 177 207 
3 178 209 179 
3 209 178 208 
3 179 210 180 
3 210 179 209 
3 180 211 181 
3 211 180 210 
3 181 212 182 
3 212 181 211 
3 182 213 183 
3 213 182 212 
3 183 214 184 
3 214 183 213 
3 184 215 185 
3 215 184 214 
3 185 216 186 
3 216 185 215 
3 186 217 187 
3 217 186 216 
3 187 218 188 
3 218 187 217 
3 188 219 189 
3 219 188 218 
3 189 220 190 
3 220 189 219 
3 190 221 191 
3 221 190 220 
3 191 222 192 
3 222 191 221 
3 192 223 193 
3 223 192 222 
3 193 224 194 
3 224 193 223 
3 194 195 165 
3 195 194 224 
3 195 226 196 
3 226 195 225 
3 196 227 197 
3 227 196 226 
3 197 228 198 
3 228 197 227 
3 198 229 199 
3 229 198 228 
3 199 230 200 
3 230 199 229 
3 200 231 201 
3 231 200 230 
3 201 232 202 
3 232 201 231 
3 202 233 203 
3 233 202 232 
3 203 234 204 
3 234 203 233 
3 204 235 205 
3 235 204 234 
3 205 236 206 
3 236 205 235 
3 206 237 207 
3 237 206 236 
3 207 238 208 
3 238 207 237 
3 208 239 209 
3 239 208 238 
3 209 240 210 
3 240 209 239 
3 210 241 211 
3 241 210 240 
3 211 242 212 
3 242 211 241 
3 212 243 213 
3 243 212 242 
3 213 244 214 
3 244 213 243 
3 214 245 215 
3 245 214 244 
3 215 246 216 
3 246 215 245 
3 216 247 217 
3 247 216 246 
3 217 248 218 
3 248 217 247 
3 218 249 219 
3 249 218 248 
3 219 250 220 
3 250 219 249 
3 220 251 221 
3 251 220 250 
3 221 252 222 
3 252 221 251 
3 222 253 223 
3 253 222 252 
3 223 254 224 
3 254 223 253 
3 224 225 195 
3 225 224 254 
3 225 256 226 
3 256 225 255 
3 226 257 227 
3 257 226 256 
3 227 258 228 
3 258 227 257 
3 228 259 229 
3 259 228 258 
3 229 260 230 
3 260 229 259 
3 230 261 231 
3 261 230 260 
3 231 262 232 
3 262 231 261 
3 232 263 233 
3 263 232 262 
3 233 264 234 
3 264 233 263 
3 234 265 235 
3 265 234 264 
3 235 266 236 
3 266 235 265 
3 236 267 237 
3 267 236 266 
3 237 268 238 
3 268 237 267 
3 238 269 239 
3 269 238 268 
3 239 270 240 
3 270 239 269 
3 240 271 241 
3 271 240 270 
3 241 272 242 
3 272 241 271 
3 242 273 243 
3 273 242 272 
3 243 274 244 
3 274 243 273 
3 244 275 245 
3 275 244 274 
3 245 276 246 
3 276 245 275 
3 246 277 247 
3 277 246 276 
3 247 278 248 
3 278 247 277 
3 248 279 249 
3 279 248 278 
3 249 280 250 
3 280 249 279 
3 250 281 251 
3 281 250 280 
3 251 282 252 
3 282 251 281 
3 252 283 253 
3 283 252 282 
3 253 284 254 
3 284 253 283 
3 254 255 225 
3 255 254 284 
3 255 286 256 
3 286 255 285 
3 256 287 257 
3 287 256 286 
3 257 288 258 
3 288 257 287 
3 258 289 259 
3 289 258 288 
3 259 290 260 
3 290 259 289 
3 260 291 261 
3 291 260 290 
3 261 292 262 
3 292 261 291 
3 262 293 263 
3 293 262 292 
3 263 294 264 
3 294 263 293 
3 264 295 265 
3 295 264 294 
3 265 296 266 
3 296 265 295 
3 266 297 267 
3 297 266 296 
3 267 298 268 
3 298 267 297 
3 268 299 269 
3 299 268 298 
3 269 300 270 
3 300 269 299 
3 270 301 271 
3 301 270 300 
3 271 302 272 
3 302 271 301 
3 272 303 273 
3 303 272 302 
3 273 304 274 
3 304 273 303 
3 274 305 275 
3 305 274 304 
3 275 306 276 
3 306 275 305 
3 276 307 277 
3 307 276 306 
3 277 308 278 
3 308 277 307 
3 278 309 279 
3 309 278 308 
3 279 310 280 
3 310 279 309 
3 280 311 281 
3 311 280 310 
3 281 312 282 
3 312 281 311 
3 282 313 283 
3 313 282 312 
3 283 314 284 
3 314 283 313 
3 284 285 255 
3 285 284 314 
3 285 315 286 
3 286 315 287 
3 287 315 288 
3 288 315 289 
3 289 315 290 
3 290 315 291 
3 291 315 292 
3 292 315 293 
3 293 315 294 
3 294 315 295 
3 295 315 296 
3 296 315 297 
3 297 315 298 
3 298 315 299 
3 299 315 300 
3 300 315 301 
3 301 315 302 
3 302 315 303 
3 303 315 304 
3 304 315 305 
3 305 315 306 
3 306 315 307 
3 307 315 308 
3 308 315 309 
3 309 315 310 
3 310 315 311 
3 311 315 312 
3 312 315 313 
3 313 315 314 
3 314 315 285 
